<?xml version="1.0" standalone="no"?>
<!DOCTYPE svg PUBLIC "-//W3C//DTD SVG 20010904//EN"
 "http://www.w3.org/TR/2001/REC-SVG-20010904/DTD/svg10.dtd">
<svg version="1.0" xmlns="http://www.w3.org/2000/svg"
 width="800.000000pt" height="800.000000pt" viewBox="0 0 800.000000 800.000000"
 preserveAspectRatio="xMidYMid meet">

<g transform="translate(0.000000,800.000000) scale(0.100000,-0.100000)"
fill="#000000" stroke="none">
<path d="M3640 6950 l-165 -5 -95 -56 c-52 -31 -122 -72 -154 -90 -63 -36 -64
-38 -95 -111 -17 -41 -24 -48 -48 -48 -21 0 -24 -3 -13 -10 12 -8 12 -10 -3
-16 -10 -3 -24 -18 -32 -33 -12 -21 -14 -23 -15 -7 0 11 8 29 18 40 17 20 17
20 -8 5 -14 -9 -33 -31 -42 -49 -9 -18 -33 -49 -52 -69 -58 -60 -87 -149 -100
-307 -3 -40 -22 -81 -118 -249 -25 -44 -63 -114 -86 -155 -22 -42 -74 -134
-116 -205 -42 -71 -76 -137 -76 -145 0 -9 6 -25 14 -36 13 -17 6 -35 -74 -189
-48 -93 -115 -219 -147 -280 -33 -60 -80 -146 -103 -190 -62 -115 -60 -113
-104 -119 -23 -3 -47 -7 -54 -8 -6 -1 -10 -3 -7 -6 2 -3 -7 -18 -20 -34 -19
-23 -25 -41 -25 -79 0 -31 -4 -48 -10 -44 -5 3 -10 26 -10 50 0 32 7 51 27 75
l26 32 -29 -4 c-21 -2 -34 -13 -51 -43 -40 -71 -26 -137 36 -168 27 -13 25 -7
86 -285 28 -124 35 -176 27 -181 -14 -9 -42 -74 -42 -100 0 -10 7 -42 16 -70
l17 -51 -44 -117 c-41 -109 -44 -125 -44 -213 0 -81 4 -106 28 -168 51 -129
145 -236 257 -289 74 -37 138 -36 425 7 197 29 259 34 435 35 226 2 265 8 377
62 169 82 258 205 509 703 65 128 130 247 144 264 60 69 64 109 20 196 l-30
60 -43 -6 c-23 -3 -71 -20 -107 -37 -87 -43 -90 -43 -55 -12 l30 26 -45 -4
c-107 -11 -336 -39 -350 -44 -13 -4 -13 -5 1 -13 21 -12 168 -60 183 -60 17 0
52 -27 45 -34 -11 -12 -233 48 -524 139 -351 111 -338 108 -383 70 -34 -28
-48 -60 -57 -128 -4 -29 -10 -45 -17 -41 -14 9 -1 90 22 134 20 39 60 66 114
77 l37 8 -86 114 c-47 62 -85 117 -85 121 0 19 271 397 559 778 47 63 102 136
121 162 67 94 135 183 166 218 l31 36 34 -28 c19 -15 81 -79 139 -141 58 -61
209 -222 336 -356 127 -134 257 -273 289 -309 32 -36 91 -101 132 -145 46 -51
76 -93 82 -115 5 -19 16 -136 26 -260 9 -124 21 -247 26 -274 12 -63 12 -153
0 -158 -6 -1 -13 -38 -17 -80 -5 -63 -4 -80 9 -93 9 -8 18 -34 21 -58 3 -23
10 -82 16 -132 6 -49 16 -117 21 -151 5 -33 16 -123 24 -200 27 -256 46 -419
50 -431 5 -14 57 -17 118 -6 38 6 38 7 33 42 -4 20 -10 97 -16 171 -13 188
-38 461 -55 611 -8 69 -15 157 -15 195 0 69 -18 140 -37 153 -11 6 -21 54 -28
136 -6 80 -25 237 -31 270 -4 19 -3 26 3 20 10 -10 30 -89 73 -275 12 -52 32
-135 45 -185 32 -117 41 -159 192 -820 29 -131 25 -124 58 -79 62 84 75 94
125 94 l47 0 7 -62 c3 -35 13 -118 22 -185 l17 -123 69 0 c46 0 70 4 73 13 3
6 -1 91 -9 187 -8 96 -12 177 -10 179 3 3 44 7 93 9 l88 4 -14 47 c-13 41 -46
150 -103 336 -11 33 -33 105 -50 160 -92 297 -126 426 -133 515 l-6 65 33
-100 c48 -143 51 -153 201 -685 74 -260 82 -290 101 -367 10 -40 20 -71 22
-68 3 2 -3 44 -12 92 -9 48 -25 147 -36 218 -11 72 -27 171 -35 220 -8 50 -17
110 -20 135 -3 25 -12 86 -20 135 -8 50 -24 151 -36 225 -25 166 -84 481 -105
573 -15 63 -15 69 2 105 26 54 23 156 -6 213 -26 49 -88 144 -117 174 -62 68
-73 87 -73 131 0 66 -46 196 -87 243 -42 49 -160 111 -213 111 -35 0 -43 7
-136 113 -54 61 -146 164 -204 227 -58 63 -132 147 -165 185 -33 39 -65 75
-71 80 -6 6 -28 31 -49 58 -28 36 -44 47 -65 47 -23 0 -54 27 -177 155 -81 86
-149 160 -151 165 -2 5 6 18 17 29 32 32 28 83 -11 128 -84 100 -111 123 -143
121 -16 -1 -104 -5 -195 -8z m185 -9 c-6 -5 -63 -27 -129 -49 l-118 -40 -23
-49 c-35 -74 -107 -234 -170 -378 -32 -71 -73 -164 -92 -205 -20 -41 -67 -145
-105 -230 -70 -155 -96 -211 -203 -435 -31 -66 -86 -183 -122 -260 -65 -138
-93 -189 -93 -169 0 5 4 14 9 20 4 5 13 23 19 39 6 17 34 82 62 145 28 63 73
165 100 225 26 61 82 189 125 285 42 96 87 200 100 230 13 30 35 79 48 108 19
40 23 60 17 80 -5 15 -22 69 -38 120 -16 50 -26 92 -22 92 5 0 23 -46 41 -102
l33 -102 24 55 c35 79 167 361 215 459 41 83 43 85 92 98 28 8 88 27 135 42
94 31 109 35 95 21z m-304 -74 c-272 -163 -357 -223 -377 -265 -13 -27 -19
-32 -22 -19 -8 38 33 79 151 153 131 82 277 164 292 164 6 -1 -14 -15 -44 -33z
m454 -45 c4 -11 -2 -9 -20 8 -32 30 -58 19 -63 -27 -3 -34 30 -83 56 -82 14 0
14 2 2 6 -24 9 -40 35 -40 65 0 38 27 48 50 20 10 -12 20 -18 24 -15 3 4 6
-12 6 -35 0 -50 -27 -71 -67 -53 -52 24 -66 133 -19 150 24 9 60 -10 71 -37z
m24 -195 c24 -29 93 -103 153 -166 60 -62 107 -118 105 -125 -10 -31 -44 -5
-180 138 -135 141 -161 179 -140 199 11 12 16 7 62 -46z m-760 -23 c28 -36 29
-110 2 -119 -26 -8 -45 2 -64 34 -17 30 -22 67 -11 95 10 25 50 19 73 -10z
m948 -358 c1 -37 8 -48 78 -121 116 -121 318 -346 314 -349 -4 -3 -51 25 -250
154 -100 65 -101 65 -122 129 l-22 63 -131 72 c-194 104 -179 89 -165 171 6
39 17 99 23 134 l12 64 131 -138 c124 -130 132 -140 132 -179z m-1187 223 c0
-15 -89 -179 -97 -179 -9 0 8 93 23 123 27 50 74 86 74 56z m60 0 c0 -19 -127
-253 -279 -514 -79 -137 -155 -269 -168 -292 -27 -47 -58 -79 -46 -47 3 10 96
178 205 371 109 194 198 355 198 358 0 3 17 35 37 70 35 61 53 79 53 54z m84
-101 c-9 -18 -75 -139 -147 -268 -71 -129 -170 -308 -219 -398 -49 -89 -94
-159 -99 -156 -15 9 -6 29 118 251 63 114 138 249 165 298 54 96 151 264 176
305 22 35 27 8 6 -32z m1171 -29 c4 -6 -1 -16 -11 -24 -24 -17 -42 -2 -24 20
15 18 26 19 35 4z m136 -154 c104 -122 380 -433 455 -515 60 -65 97 -110 90
-110 -4 0 -35 30 -69 67 -50 55 -272 292 -376 403 -13 14 -64 71 -113 128 -54
61 -98 102 -109 102 -11 0 -19 3 -19 6 0 13 22 45 29 42 5 -2 55 -57 112 -123z
m-598 95 c-31 -12 -29 -22 2 -14 30 7 80 -37 91 -81 19 -78 -49 -115 -100 -54
-23 27 -27 40 -25 88 2 67 4 71 32 70 l22 0 -22 -9z m-810 -187 c-23 -58 -51
-117 -110 -243 -31 -63 -75 -160 -100 -215 -24 -55 -58 -129 -75 -165 -17 -36
-55 -119 -85 -185 -66 -144 -104 -224 -173 -370 -29 -60 -63 -133 -75 -162
-22 -50 -25 -51 -81 -64 -31 -7 -53 -14 -47 -16 6 -2 52 7 104 20 52 14 126
30 164 37 39 8 77 19 86 27 27 23 56 15 88 -24 39 -47 44 -120 11 -153 -27
-27 -44 -25 -69 6 -35 44 -23 124 19 124 30 0 51 -29 48 -64 -5 -54 -62 -42
-60 13 0 17 -4 29 -9 26 -27 -17 6 -85 41 -85 44 0 52 72 13 124 -24 33 -58
33 -90 -1 -17 -18 -24 -22 -20 -10 4 9 5 17 2 17 -25 0 -382 -91 -427 -108
-43 -17 -60 -53 -56 -117 1 -30 0 -55 -4 -55 -14 0 -29 70 -22 104 7 41 53 86
87 86 12 1 36 7 52 16 l30 14 -28 -5 c-26 -5 -21 8 134 312 89 175 170 330
181 345 10 15 28 28 41 30 17 2 35 28 78 113 30 61 96 184 146 275 50 91 114
210 143 265 51 95 69 125 76 125 2 0 -4 -17 -13 -37z m1629 -434 c199 -133
386 -257 415 -276 78 -53 292 -299 343 -394 23 -44 30 -70 30 -113 0 -61 -14
-75 -25 -23 -10 48 -61 150 -88 178 -13 13 -27 41 -30 63 -3 21 -13 43 -21 50
-8 6 -33 34 -57 61 -56 66 -333 272 -789 585 -81 56 -153 110 -147 110 3 0
169 -109 369 -241z m-476 48 l-7 -52 398 -390 c219 -215 415 -410 436 -435 45
-53 230 -366 225 -381 -2 -5 -45 55 -96 134 l-92 145 -481 478 c-458 457 -527
529 -516 540 2 3 30 -16 61 -41 l56 -46 0 35 c0 19 3 41 6 50 12 31 16 15 10
-37z m883 -132 c88 -44 147 -133 167 -250 l6 -40 -46 45 c-25 24 -46 52 -46
62 0 9 -30 52 -68 95 -98 113 -98 113 -78 113 9 0 38 -11 65 -25z m-2412 -71
c3 -12 -25 -49 -32 -42 -10 10 7 59 18 55 6 -2 12 -7 14 -13z m-87 -99 c8 -10
9 -19 3 -27 -6 -7 -47 -85 -93 -173 -46 -88 -116 -223 -157 -300 -40 -77 -85
-164 -100 -193 -18 -38 -35 -57 -58 -66 -18 -8 -42 -28 -55 -45 -12 -18 -24
-30 -27 -27 -6 6 43 107 128 261 36 66 105 197 154 290 135 263 155 295 175
295 9 0 23 -7 30 -15z m2734 -396 c41 -48 30 -144 -16 -137 -29 4 -68 62 -68
100 0 70 41 88 84 37z m6 -207 c0 -26 5 -76 10 -112 5 -36 17 -146 25 -245 9
-99 20 -214 25 -255 5 -41 9 -103 10 -137 l0 -63 -30 0 c-16 0 -30 1 -30 3 -1
1 -5 47 -10 102 -8 94 -27 296 -49 535 -20 203 -19 213 9 220 36 10 40 4 40
-48z m-3290 -190 c0 -5 -11 -14 -25 -20 -13 -6 -32 -26 -41 -44 -10 -18 -19
-27 -21 -21 -6 18 34 81 55 86 28 8 32 7 32 -1z m2717 -69 c26 -58 34 -95 52
-248 12 -99 25 -208 30 -243 4 -34 5 -64 3 -67 -3 -3 -20 -5 -37 -5 l-33 0 -6
88 c-4 48 -12 123 -17 167 -17 133 -35 375 -29 375 3 0 20 -30 37 -67z m-2487
15 c24 -40 25 -76 4 -106 -46 -66 -124 44 -84 119 17 31 57 24 80 -13z m319
-60 c-123 -353 -140 -400 -146 -394 -3 2 26 94 63 203 84 249 82 243 93 243 5
0 0 -24 -10 -52z m-457 -143 c7 -8 -13 -105 -22 -105 -10 0 -23 87 -15 100 7
11 28 13 37 5z m1973 -200 c14 -13 25 -29 25 -35 0 -6 -11 2 -24 17 -20 23
-28 26 -43 17 -30 -18 -39 -59 -19 -88 24 -37 58 -34 79 7 l18 32 -6 -30 c-11
-57 -60 -72 -94 -29 -37 48 -21 134 25 134 8 0 26 -11 39 -25z m1 -39 c9 -37
1 -61 -20 -61 -26 0 -40 26 -32 58 8 35 43 37 52 3z m1356 -196 c4 -65 -16
-66 -22 -2 -3 29 -4 55 -1 58 10 10 19 -13 23 -56z m-3167 -39 l-7 -46 -14 27
c-12 24 -17 25 -51 18 -82 -17 -104 -19 -99 -11 3 5 32 12 64 16 70 8 77 12
93 50 10 25 13 27 17 11 2 -10 1 -39 -3 -65z m144 55 c45 -48 33 -146 -18
-146 -55 0 -91 93 -57 145 21 31 46 32 75 1z m2458 -50 c5 -38 3 -46 -11 -46
-11 0 -16 9 -16 29 0 16 -3 44 -6 62 -6 32 -6 33 11 18 9 -10 20 -38 22 -63z
m-2838 -46 c1 -13 0 -13 -9 0 -5 8 -9 24 -9 35 l0 20 9 -20 c5 -11 9 -27 9
-35z m3411 -32 c0 -33 19 -254 26 -308 3 -28 2 -41 -4 -35 -5 6 -15 67 -21
138 -7 70 -15 150 -18 177 -4 34 -2 50 6 50 6 0 11 -10 11 -22z m-556 -193 c9
-104 18 -221 21 -260 7 -121 -13 -3 -30 175 -9 85 -19 182 -24 215 -9 60 -5
84 9 68 4 -4 15 -93 24 -198z m-964 159 c0 -8 -41 -93 -91 -190 -200 -390
-295 -498 -491 -565 -53 -18 -80 -20 -169 -17 -97 4 -111 7 -181 42 -94 46
-147 91 -199 168 -48 69 -48 89 0 23 39 -54 98 -103 171 -141 51 -27 63 -29
165 -29 109 0 111 0 184 39 131 71 270 233 516 603 54 82 71 101 82 92 7 -6
13 -18 13 -25z m-1215 -54 c-8 -23 -18 -80 -21 -125 l-7 -83 -66 -6 c-36 -4
-115 -13 -176 -21 -60 -8 -182 -21 -270 -30 -88 -9 -175 -17 -192 -20 -32 -4
-33 -2 -33 31 0 19 2 34 4 34 2 0 26 4 54 10 29 5 102 14 164 20 62 6 151 17
198 25 47 7 121 16 165 20 120 10 122 11 134 60 13 53 50 139 56 133 3 -3 -2
-24 -10 -48z"/>
<path d="M3178 6595 c-17 -37 13 -98 45 -93 32 4 36 62 6 94 -28 30 -37 30
-51 -1z m62 -46 c0 -33 -15 -45 -35 -29 -15 13 -21 71 -8 83 12 13 43 -26 43
-54z"/>
<path d="M3844 6223 c-9 -35 23 -97 52 -101 29 -4 51 46 34 77 -15 29 -21 26
-10 -5 10 -25 -1 -64 -19 -64 -14 0 -40 35 -42 56 -5 48 0 56 27 50 17 -5 23
-3 19 4 -3 5 -17 10 -30 10 -18 0 -26 -7 -31 -27z"/>
<path d="M5257 5013 c-17 -17 -6 -75 19 -100 26 -26 27 -26 40 -8 15 20 19 71
6 79 -4 2 -6 -10 -4 -29 7 -60 -37 -54 -52 7 -4 18 -1 32 10 42 12 13 13 16 1
16 -7 0 -17 -3 -20 -7z"/>
<path d="M2202 4558 c-7 -7 -12 -29 -12 -50 0 -32 4 -39 26 -44 30 -8 44 7 44
48 0 25 -22 58 -39 58 -4 0 -12 -5 -19 -12z m46 -52 c-2 -23 -8 -31 -23 -31
-15 0 -21 8 -23 34 -4 37 14 57 36 39 7 -6 12 -25 10 -42z"/>
<path d="M2364 3915 c-15 -23 -15 -30 -2 -63 10 -28 20 -38 40 -40 21 -3 28 3
36 28 12 33 8 55 -16 83 -21 24 -39 21 -58 -8z m67 -21 c9 -26 -4 -74 -20 -74
-19 0 -41 32 -41 59 0 52 42 63 61 15z"/>
<path d="M4158 4542 c-14 -17 -37 -52 -49 -77 -12 -25 -31 -54 -41 -65 -10
-10 -18 -22 -18 -24 0 -3 -14 -28 -31 -56 -17 -28 -29 -53 -26 -57 3 -3 37 0
74 7 47 7 73 17 80 30 13 20 46 230 41 257 -2 13 -8 10 -30 -15z"/>
<path d="M3953 4528 c-11 -13 -30 -42 -41 -64 -12 -23 -32 -54 -45 -70 -24
-29 -87 -136 -87 -148 0 -8 98 -6 129 3 22 6 27 17 42 96 20 102 34 205 27
205 -2 0 -14 -10 -25 -22z"/>
<path d="M3767 4510 c-40 -56 -187 -287 -187 -294 0 -8 133 6 152 15 9 5 19
27 23 51 4 24 13 78 21 120 9 42 14 89 12 105 l-3 28 -18 -25z"/>
<path d="M3553 4462 c-18 -26 -62 -90 -97 -142 -36 -52 -66 -101 -66 -107 0
-14 25 -16 92 -7 l46 6 25 107 c27 111 42 191 36 191 -2 0 -18 -22 -36 -48z"/>
<path d="M3318 4386 c-43 -63 -79 -119 -80 -126 -2 -7 19 -20 48 -30 l50 -18
33 134 c18 73 31 138 29 143 -1 6 -38 -41 -80 -103z"/>
<path d="M5751 3044 c0 -11 3 -14 6 -6 3 7 2 16 -1 19 -3 4 -6 -2 -5 -13z"/>
<path d="M3465 2764 c-402 -24 -793 -74 -1120 -144 -118 -24 -84 -25 74 -1
239 37 446 55 931 81 226 12 1253 12 1480 0 96 -5 261 -14 365 -20 210 -11
446 -33 600 -55 101 -15 142 -18 134 -11 -15 15 -492 88 -689 106 -63 6 -151
15 -195 20 -326 39 -1137 51 -1580 24z"/>
<path d="M5953 2603 c9 -2 25 -2 35 0 9 3 1 5 -18 5 -19 0 -27 -2 -17 -5z"/>
<path d="M1640 2295 l0 -65 85 0 85 0 0 -77 c1 -43 1 -147 0 -231 0 -84 2
-197 6 -252 l7 -100 68 0 69 0 2 328 3 327 77 3 76 3 4 60 c1 34 1 63 -1 65
-2 2 -112 4 -243 4 l-238 0 0 -65z"/>
<path d="M2219 2353 c-1 -4 -2 -182 -3 -395 l-1 -388 73 0 72 0 0 160 0 160
100 0 100 0 0 -160 0 -160 75 0 75 0 0 395 0 396 -72 -3 -73 -3 -3 -168 -2
-168 -98 3 -97 3 -5 165 -5 165 -67 3 c-38 2 -69 -1 -69 -5z"/>
<path d="M3044 2352 c-18 -3 -38 -54 -147 -385 -70 -210 -127 -385 -127 -390
0 -4 33 -7 74 -7 l74 0 17 65 18 65 41 1 c23 1 82 2 131 3 l90 1 22 -65 21
-65 76 -3 c42 -2 76 -2 76 0 0 2 -58 176 -129 388 l-129 385 -43 5 c-24 3 -53
4 -65 2z m89 -378 c20 -67 37 -126 37 -133 0 -7 -28 -11 -86 -11 -77 0 -85 2
-80 18 46 151 76 253 76 259 0 25 22 -29 53 -133z"/>
<path d="M3470 1965 l0 -396 70 3 71 3 3 215 c2 118 4 217 5 220 2 7 99 -187
162 -323 l53 -117 68 0 68 0 0 395 0 396 -72 -3 -73 -3 -5 -218 -5 -219 -107
221 -107 221 -66 0 -65 0 0 -395z"/>
<path d="M4070 1965 l0 -395 75 0 75 0 0 160 0 160 100 0 100 0 0 -160 0 -160
75 0 75 0 -2 393 -3 392 -72 3 -73 3 0 -171 0 -170 -100 0 -100 0 0 170 0 170
-75 0 -75 0 0 -395z"/>
<path d="M4670 1965 l0 -395 210 0 210 0 0 65 0 65 -140 0 -140 0 0 330 0 330
-70 0 -70 0 0 -395z"/>
<path d="M5178 2353 c-2 -5 -2 -182 0 -395 l2 -388 70 0 70 0 0 395 0 395 -69
0 c-39 0 -71 -3 -73 -7z"/>
<path d="M5473 2318 l-41 -43 -5 -307 -5 -306 47 -46 47 -46 155 0 155 0 38
39 c38 38 55 85 56 147 0 27 -4 32 -31 38 -80 16 -119 5 -119 -34 0 -44 -27
-60 -102 -60 -107 0 -98 -23 -98 265 l0 252 38 7 c20 3 63 6 95 6 l57 0 0 -60
0 -60 75 0 75 0 0 82 0 82 -46 43 -47 43 -151 0 -152 0 -41 -42z"/>
<path d="M6000 1965 l0 -395 75 0 75 0 0 160 0 160 100 0 100 0 0 -160 0 -160
75 0 75 0 0 395 0 395 -75 0 -75 0 -2 -167 -3 -168 -97 -3 -98 -3 0 171 0 170
-75 0 -75 0 0 -395z"/>
</g>
</svg>
