<?xml version="1.0" standalone="no"?>
<!DOCTYPE svg PUBLIC "-//W3C//DTD SVG 20010904//EN"
 "http://www.w3.org/TR/2001/REC-SVG-20010904/DTD/svg10.dtd">
<svg version="1.0" xmlns="http://www.w3.org/2000/svg"
 width="700.000000pt" height="700.000000pt" viewBox="0 0 480.000000 480.000000"
 preserveAspectRatio="xMidYMid meet">

<g transform="translate(0.000000,480.000000) scale(0.100000,-0.100000)"
fill="#000000" stroke="none">
<path d="M2185 4170 l-110 -5 -88 -53 c-67 -41 -91 -62 -105 -90 -11 -24 -25
-38 -39 -40 -13 -2 -32 -15 -43 -30 -11 -15 -26 -34 -33 -42 -33 -35 -47 -70
-60 -146 -12 -68 -26 -103 -88 -215 -40 -74 -89 -161 -109 -194 -47 -77 -53
-95 -39 -111 16 -19 -218 -457 -246 -462 -70 -12 -93 -23 -105 -51 -15 -38
-10 -71 15 -85 11 -6 21 -11 22 -11 1 -1 15 -61 32 -135 26 -118 28 -136 15
-154 -16 -24 -18 -69 -4 -95 7 -14 2 -40 -20 -100 -17 -45 -30 -99 -30 -121 0
-86 58 -197 132 -250 67 -49 93 -52 252 -29 77 12 215 24 306 28 149 6 170 9
222 33 103 48 164 131 309 418 40 80 83 158 96 173 27 34 29 64 6 112 -20 41
-38 44 -101 15 -23 -11 -40 -15 -37 -10 8 13 1 13 -122 -2 -57 -6 -103 -14
-103 -18 0 -3 32 -16 70 -29 39 -12 70 -25 70 -28 0 -10 -73 8 -240 59 -91 28
-192 59 -225 69 -33 10 -50 18 -37 18 22 1 19 6 -32 72 -55 71 -55 72 -39 99
39 67 503 690 514 690 8 0 466 -484 550 -581 l55 -64 18 -201 c14 -163 15
-211 5 -249 -9 -37 -9 -52 0 -67 7 -11 28 -151 47 -311 19 -160 36 -292 37
-293 1 0 21 1 45 4 35 3 42 8 42 26 0 11 -10 136 -22 276 -17 190 -25 242 -29
205 -5 -41 -6 -44 -8 -15 0 19 -3 53 -6 75 -4 33 -3 36 5 15 7 -19 9 -9 7 43
-2 38 -8 72 -15 75 -6 4 -16 50 -22 102 -6 52 -12 109 -15 125 -8 59 14 -7 40
-115 13 -58 55 -237 93 -399 l68 -294 33 42 c24 30 40 41 61 41 l27 0 13 -110
13 -110 45 0 45 0 -7 115 -7 115 56 0 c54 0 56 1 49 23 -48 151 -134 435 -135
447 -1 8 -5 2 -9 -15 -7 -28 -7 -27 -5 8 2 20 -3 62 -12 93 -8 31 -13 66 -11
77 3 21 87 -255 170 -558 21 -77 36 -122 33 -100 -16 122 -119 757 -139 857
-13 66 -19 123 -14 130 15 24 8 108 -12 147 -11 22 -38 60 -60 86 -22 25 -40
56 -40 69 0 41 -30 125 -57 156 -30 36 -92 70 -126 70 -18 0 -60 40 -173 166
-82 92 -166 188 -188 213 -21 25 -48 48 -60 51 -11 3 -61 48 -111 100 -49 52
-98 100 -109 105 -10 6 -23 21 -28 34 -7 21 -5 20 21 -8 35 -38 49 -39 57 -5
5 18 1 31 -11 42 -16 16 -17 16 -6 -5 16 -31 4 -56 -20 -42 -23 12 -25 55 -4
66 13 8 11 13 -12 35 -37 33 -40 34 -168 28z m-22 -52 c-14 -7 -40 -53 -79
-141 -113 -260 -355 -779 -360 -774 -2 2 48 120 112 263 98 222 114 265 110
299 -2 22 -2 32 1 23 5 -19 23 -25 23 -8 0 21 151 325 167 338 9 6 24 12 32
11 11 0 9 -4 -6 -11z m-63 -2 c0 -2 -39 -27 -87 -57 -49 -29 -101 -67 -117
-84 -17 -18 -25 -22 -18 -10 15 30 38 48 132 104 87 52 90 54 90 47z m248 -10
c-7 -8 -15 -12 -17 -11 -5 6 10 25 20 25 5 0 4 -6 -3 -14z m226 -298 c9 2 16
-1 16 -6 0 -14 -12 -22 -24 -14 -6 3 -16 7 -22 7 -19 0 -184 182 -184 202 0
12 33 -17 99 -87 59 -63 106 -104 115 -102z m-635 159 c6 -8 8 -17 4 -20 -3
-4 -1 -7 5 -7 18 0 15 -40 -3 -46 -31 -12 -49 30 -36 84 2 7 20 0 30 -11z
m571 -216 c0 -16 30 -56 98 -128 157 -170 159 -173 38 -96 -93 59 -108 73
-118 106 -10 32 -21 43 -92 82 -45 24 -87 49 -94 53 -12 8 -12 23 -1 86 l12
78 78 -78 c55 -55 79 -86 79 -103z m-735 79 c-28 -56 -44 -61 -26 -9 11 33 41
73 48 65 3 -2 -8 -27 -22 -56z m6 -58 c-82 -150 -220 -385 -233 -397 -6 -5 0
10 14 35 14 25 74 133 133 240 128 230 135 243 141 237 3 -2 -22 -54 -55 -115z
m92 26 c-202 -369 -258 -468 -265 -468 -10 0 31 78 170 325 96 172 110 195
118 195 3 0 -7 -24 -23 -52z m870 -170 c73 -84 155 -177 181 -205 27 -29 46
-53 43 -53 -2 0 -73 75 -158 168 -85 92 -169 182 -186 201 -18 18 -33 35 -33
37 0 19 37 -17 153 -148z m-428 115 c-19 -19 -19 -26 4 -54 16 -20 22 -22 33
-11 11 11 10 12 -4 7 -21 -8 -46 31 -29 48 14 14 54 -27 49 -51 -5 -27 -44
-27 -63 1 -21 33 -17 86 7 79 15 -4 15 -6 3 -19z m-661 -459 c-229 -495 -215
-462 -201 -467 7 -2 -1 -2 -18 0 -24 3 -27 2 -15 -7 12 -9 7 -10 -20 -5 -28 5
-32 4 -20 -5 13 -10 12 -11 -3 -6 -10 3 -23 6 -28 6 -17 0 198 403 218 411 10
4 27 24 38 45 45 89 210 392 212 390 2 -2 -72 -164 -163 -362z m1510 -170 c86
-98 125 -168 111 -201 -5 -14 -11 -7 -25 31 -11 27 -28 59 -40 71 -11 11 -20
30 -20 41 -1 44 -97 124 -417 348 -152 106 -85 68 111 -63 175 -117 203 -140
280 -227z m-429 59 c278 -270 321 -321 399 -470 30 -58 9 -35 -39 45 -38 61
-112 141 -354 385 -168 169 -300 307 -294 307 7 0 137 -120 288 -267z m315
172 c38 -20 75 -70 89 -119 6 -22 9 -41 7 -43 -2 -2 -14 10 -27 27 -13 17 -46
57 -72 90 -49 61 -48 71 3 45z m-1458 -57 c-7 -7 -12 -8 -12 -2 0 14 12 26 19
19 2 -3 -1 -11 -7 -17z m-47 -47 c3 -6 -46 -108 -109 -227 -83 -158 -121 -221
-140 -231 -14 -8 -26 -19 -26 -25 0 -6 8 -4 18 5 10 10 22 17 27 17 5 0 0 -6
-10 -14 -13 -9 -19 -26 -19 -54 -1 -22 -4 -38 -8 -35 -5 2 -8 20 -8 39 0 25
-4 33 -12 28 -6 -4 13 39 44 97 31 57 86 163 123 234 37 72 74 140 82 153 14
23 28 28 38 13z m161 -88 c-8 -15 -15 -25 -16 -21 0 12 23 58 27 54 3 -2 -2
-17 -11 -33z m1486 -158 c12 -28 -1 -53 -21 -41 -15 10 -14 43 2 49 7 3 5 6
-5 6 -12 1 -18 -6 -18 -21 0 -32 15 -52 34 -45 18 7 22 -8 5 -18 -19 -12 -49
26 -49 62 0 26 4 33 20 33 12 0 25 -10 32 -25z m7 -197 c7 -62 18 -177 25
-255 11 -135 11 -143 -6 -143 -23 0 -24 5 -43 245 -8 110 -18 215 -21 233 -4
27 -2 32 14 32 18 0 21 -12 31 -112z m-1558 45 c11 -15 11 -16 -1 -5 -20 17
-40 15 -57 -5 -13 -16 -13 -16 -3 5 13 26 42 29 61 5z m-134 -19 c-3 -3 -12
-4 -19 -1 -8 3 -5 6 6 6 11 1 17 -2 13 -5z m128 -4 c4 -6 10 -8 14 -5 5 2 8
-12 7 -33 -1 -27 -6 -38 -19 -40 -18 -4 -46 23 -46 43 0 6 6 2 13 -7 7 -10 22
-18 32 -17 17 0 17 1 -2 9 -30 12 -40 60 -13 60 4 0 11 -5 14 -10z m-416 -53
c-2 -1 -14 -11 -26 -21 -13 -11 -23 -16 -23 -13 0 10 31 37 42 37 6 0 9 -1 7
-3z m1660 -187 c6 -58 14 -124 17 -147 6 -38 4 -43 -14 -43 -22 0 -24 8 -42
190 -5 58 -12 125 -15 150 l-5 45 23 -45 c17 -31 28 -77 36 -150z m-1715 168
c-4 -6 -11 -25 -15 -42 -5 -25 -7 -26 -8 -8 -1 23 15 62 25 62 3 0 2 -5 -2
-12z m196 -24 c11 -29 -2 -64 -25 -64 -20 0 -38 38 -31 66 9 33 43 32 56 -2z
m180 -49 c-16 -47 -23 -40 -8 8 6 20 13 35 16 33 2 -3 -1 -21 -8 -41z m-270
-91 c0 -14 -4 -23 -10 -19 -5 3 -10 15 -10 26 0 10 5 19 10 19 6 0 10 -12 10
-26z m427 -21 c-8 -10 -20 -38 -26 -63 l-11 -45 4 43 c4 37 28 82 44 82 3 0
-2 -8 -11 -17z m767 -96 c-8 -27 -15 -35 -33 -39 -18 -4 -25 63 -8 74 20 12
49 -11 41 -35z m7 -34 c-12 -20 -14 -14 -5 12 4 9 9 14 11 11 3 -2 0 -13 -6
-23z m-1101 -93 c0 -26 -2 -29 -14 -18 -8 7 -10 15 -5 16 5 2 9 10 9 18 0 8 2
14 5 14 3 0 5 -14 5 -30z m87 18 c4 -7 8 -27 10 -45 2 -35 -16 -48 -41 -30
-13 10 -14 19 -7 45 7 23 7 30 -1 26 -7 -4 -8 -2 -4 4 9 16 33 15 43 0z m1472
-31 c0 -27 -2 -29 -9 -12 -12 28 -12 57 0 50 6 -3 10 -21 9 -38z m-1622 -3
c-3 -3 -12 -4 -19 -1 -8 3 -5 6 6 6 11 1 17 -2 13 -5z m1053 -61 c0 -20 -110
-229 -161 -304 -67 -99 -144 -149 -244 -156 -33 -3 -79 0 -102 6 -54 15 -130
67 -162 111 -25 35 -25 35 20 -6 64 -60 104 -78 174 -78 119 0 207 74 370 312
50 72 93 131 98 131 4 1 7 -6 7 -16z m917 -60 c-2 -16 -4 -3 -4 27 0 30 2 43
4 28 2 -16 2 -40 0 -55z m-1654 -35 c-6 -67 14 -59 -213 -83 -80 -8 -164 -18
-187 -21 -38 -5 -43 -3 -43 14 0 24 0 24 233 53 l187 23 11 39 c14 52 18 44
12 -25z m1664 -55 c-3 -10 -5 -4 -5 12 0 17 2 24 5 18 2 -7 2 -21 0 -30z
m-340 -35 c-2 -13 -4 -5 -4 17 -1 22 1 32 4 23 2 -10 2 -28 0 -40z"/>
<path d="M1916 3908 c3 -4 12 -8 20 -8 8 0 14 4 14 8 0 4 -9 8 -19 8 -11 0
-17 -4 -15 -8z"/>
<path d="M1317 2733 c-12 -11 -8 -40 7 -52 10 -8 16 -9 21 -1 4 6 1 9 -7 8
-21 -5 -22 40 -1 45 14 4 14 5 2 6 -9 0 -19 -2 -22 -6z"/>
<path d="M2420 2481 c0 -5 9 -7 20 -4 11 3 20 7 20 9 0 2 -9 4 -20 4 -11 0
-20 -4 -20 -9z"/>
<path d="M1420 2302 c0 -15 28 -23 36 -9 4 7 4 9 -1 5 -4 -4 -14 -3 -22 3 -8
7 -13 8 -13 1z"/>
<path d="M2467 2684 c-47 -74 -67 -109 -67 -118 0 -11 65 -5 81 7 14 11 44
165 34 175 -2 2 -24 -27 -48 -64z"/>
<path d="M2366 2708 c-59 -83 -100 -157 -92 -165 11 -11 85 9 90 25 12 44 28
153 23 158 -3 3 -12 -5 -21 -18z"/>
<path d="M2262 2707 c-16 -19 -112 -167 -112 -172 0 -10 89 -5 95 5 7 12 36
172 31 177 -2 2 -8 -2 -14 -10z"/>
<path d="M1990 2632 c-25 -37 -46 -72 -48 -78 -3 -13 49 -26 59 -16 8 9 43
152 38 157 -2 2 -24 -27 -49 -63z"/>
<path d="M2094 2622 c-73 -108 -71 -102 -24 -102 33 0 42 4 49 23 15 39 39
157 33 157 -4 0 -30 -35 -58 -78z"/>
<path d="M2130 1664 c-248 -15 -740 -80 -759 -100 -3 -4 10 -4 29 -1 236 42
557 60 1040 60 434 0 701 -11 943 -38 137 -16 163 -18 156 -11 -8 8 -348 55
-514 72 -152 15 -741 27 -895 18z"/>
<path d="M3558 1563 c6 -2 18 -2 25 0 6 3 1 5 -13 5 -14 0 -19 -2 -12 -5z"/>
<path d="M2833 1412 l-33 -3 0 -235 0 -235 128 3 127 3 3 38 3 37 -85 0 -86 0
0 194 c0 210 2 204 -57 198z"/>
<path d="M980 1376 l0 -35 53 -3 52 -3 3 -197 2 -198 45 0 45 0 0 200 0 200
50 0 50 0 0 35 0 35 -150 0 -150 0 0 -34z"/>
<path d="M1330 1175 l0 -235 45 0 45 0 0 98 0 97 52 -4 c29 -2 56 -8 60 -15 4
-6 8 -48 8 -94 l0 -83 43 3 42 3 3 233 2 232 -44 0 -45 0 -3 -97 -3 -98 -34
-3 c-19 -2 -44 -1 -57 2 -23 6 -24 10 -24 101 l0 95 -45 0 -45 0 0 -235z"/>
<path d="M1740 1188 c-40 -123 -75 -229 -77 -235 -4 -9 8 -13 41 -13 44 0 45
1 57 40 l12 40 77 0 77 0 16 -40 c15 -38 17 -40 60 -40 l45 0 -77 233 -78 232
-40 3 -39 3 -74 -223z m157 -84 c-3 -3 -25 -4 -50 -2 l-45 3 20 65 c10 36 22
72 25 80 3 9 16 -18 30 -63 14 -43 22 -81 20 -83z"/>
<path d="M2080 1175 l0 -235 45 0 45 0 1 133 1 132 65 -132 65 -133 39 0 39 0
0 235 0 235 -45 0 -45 0 -1 -127 0 -128 -61 128 -61 127 -44 0 -43 0 0 -235z"/>
<path d="M2440 1175 l0 -235 45 0 44 0 3 98 3 97 55 0 55 0 3 -97 3 -98 44 0
45 0 0 235 0 235 -45 0 -45 0 0 -100 0 -101 -57 3 -58 3 -3 98 -3 97 -44 0
-45 0 0 -235z"/>
<path d="M3102 1178 l3 -233 43 -3 42 -3 0 235 0 236 -45 0 -46 0 3 -232z"/>
<path d="M3278 1383 c-26 -28 -26 -29 -28 -204 l-1 -177 26 -31 c27 -31 27
-31 124 -31 94 0 98 1 124 28 21 21 27 38 27 70 l0 42 -44 0 c-41 0 -45 -2
-48 -27 -3 -27 -5 -28 -58 -28 l-55 0 -3 153 -3 152 51 0 c27 0 53 1 58 3 4 1
8 -13 10 -30 3 -32 5 -33 48 -33 l44 0 0 45 c0 35 -6 52 -25 70 -22 23 -31 25
-123 25 -94 0 -99 -1 -124 -27z"/>
<path d="M3600 1175 l0 -235 45 0 45 0 0 95 0 95 60 0 60 0 0 -95 0 -95 45 0
45 0 0 235 0 235 -45 0 -45 0 0 -94 c0 -102 -2 -106 -60 -106 -58 0 -60 4 -60
106 l0 94 -45 0 -45 0 0 -235z"/>
</g>
</svg>
